<svg xmlns="http://www.w3.org/2000/svg" viewBox="0 0 36 36" width="36" height="36">
  <path fill="#000000" d="M18 2.5C12 2.5 9 8 9 13.5c0 3 .6 5 1.3 6.6-1 1.5-2.3 4-2.3 7.4 0 4.5 4 6 5.5 6 .6 1.4 2 2 4.5 2s3.9-.6 4.5-2c1.5 0 5.5-1.5 5.5-6 0-3.4-1.3-5.9-2.3-7.4.7-1.6 1.3-3.6 1.3-6.6 0-5.5-3-11-9-11z"/>
  <ellipse fill="#FFFFFF" cx="14.3" cy="14" rx="1.9" ry="2.5"/>
  <ellipse fill="#FFFFFF" cx="21.7" cy="14" rx="1.9" ry="2.5"/>
  <circle fill="#000000" cx="14.8" cy="14.6" r="0.9"/>
  <circle fill="#000000" cx="21.2" cy="14.6" r="0.9"/>
  <path fill="#F4900C" d="M18 17.3c-1 0-1.8.6-1.8 1.3 0 .8 1.1 1.9 1.8 1.9s1.8-1.1 1.8-1.9c0-.7-.8-1.3-1.8-1.3z"/>
</svg>
